<svg width="33" height="64" viewBox="0 0 33 64" fill="none" xmlns="http://www.w3.org/2000/svg">
<path fill-rule="evenodd" clip-rule="evenodd" d="M1.25586 17.3908C1.25586 8.22159 8.1909 0.788452 16.7456 0.788452C25.3003 0.788452 32.2355 8.22159 32.2355 17.3908C32.2355 26.56 25.3003 33.9931 16.7456 33.9931C8.1909 33.9931 1.25586 26.56 1.25586 17.3908Z" stroke="#E8728A" stroke-width="1.47108"/>
<path d="M12.3811 6.77905C12.3811 6.77905 8.27315 7.80595 7.39331 12.7225" stroke="#E8728A" stroke-width="1.47108" stroke-linecap="round"/>
<path d="M14.7441 34.156L14.2412 36.8519C14.1699 37.2344 14.4631 37.5875 14.8521 37.5875H18.714C19.0546 37.5875 19.3008 37.2615 19.2074 36.9339L18.5797 34.3324" stroke="#E8728A" stroke-width="1.47108" stroke-linecap="round"/>
<path d="M16.7456 37.673C17.878 41.0141 19.2067 43.6101 18.2313 47.2117C17.6602 49.321 16.7049 51.3199 16.2551 53.4583C15.5966 56.5901 16.0846 59.9498 17.6074 62.7644" stroke="#E8728A" stroke-width="1.47108" stroke-linecap="round"/>
</svg>
