<svg width="39" height="63" viewBox="0 0 39 63" fill="none" xmlns="http://www.w3.org/2000/svg">
<path fill-rule="evenodd" clip-rule="evenodd" d="M25.3521 1.03682L0.752065 35.9994C0.687985 36.0903 0.749364 36.2164 0.860064 36.2217L13.0434 36.7788C13.1418 36.7833 13.205 36.8862 13.165 36.9769L2.14796 61.9197C2.08226 62.0686 2.27792 62.1922 2.38268 62.0684L30.1621 29.1997C30.2375 29.1104 30.1781 28.9729 30.0618 28.9675L15.0257 28.2669C14.9294 28.2624 14.8662 28.1638 14.902 28.0738L25.5966 1.17065C25.6583 1.0155 25.4482 0.900484 25.3521 1.03682Z" stroke="#E8728A" stroke-width="1.44787"/>
<path d="M30.6777 25.3598L31.1299 19.8986" stroke="#E8728A" stroke-width="1.14125" stroke-linecap="round"/>
<path d="M33.3542 26.746L38.2227 23.9731" stroke="#E8728A" stroke-width="1.14125" stroke-linecap="round"/>
<path d="M33.6626 29.3333L37.914 31.2447" stroke="#E8728A" stroke-width="1.14125" stroke-linecap="round"/>
</svg>
