<svg width="13" height="15" viewBox="0 0 13 15" fill="none" xmlns="http://www.w3.org/2000/svg">
<path d="M7.52572 11.4825C6.98837 12.1579 7.959 12.92 8.46168 12.2099C9.6057 10.6339 10.6456 8.95403 11.4256 7.17002C12.0842 5.66325 12.6389 3.74074 11.8936 2.16471C11.079 0.432798 9.18969 1.64516 8.34048 2.63237C7.54313 3.56758 7.00589 4.67606 6.55523 5.81905C6.13922 4.43355 5.65392 3.08267 4.89124 1.83563C4.14583 0.571376 2.56853 -0.744863 1.12995 0.502115C-0.325985 1.76637 0.332594 3.84471 0.922002 5.36867C1.56334 7.03133 2.41261 8.62458 3.48731 10.0447C4.70065 11.6207 6.12193 13.0062 7.69926 14.2012C7.94197 14.3917 8.20197 13.976 7.94197 13.7855C4.94342 11.4649 2.65521 8.05299 1.47674 4.45063C1.18209 3.55004 0.835397 2.38969 1.4247 1.52372C2.13533 0.467245 3.19268 1.07343 3.79935 1.88739C4.99531 3.51543 5.51528 5.59359 6.07001 7.49862C6.20864 7.98353 6.84996 7.93155 7.00597 7.49862C7.474 6.217 7.95933 4.95274 8.7219 3.80958C9.06859 3.29003 9.51925 2.70121 10.0912 2.38944C11.0099 1.88714 11.2699 2.78772 11.3218 3.54979C11.4085 5.0392 10.7152 6.45926 10.0392 7.72374C9.29389 9.05737 8.46168 10.3221 7.52572 11.4825Z" fill="#FF7C99"/>
</svg>
