<svg width="90" height="90" viewBox="0 0 90 90" fill="none" xmlns="http://www.w3.org/2000/svg">
<path d="M74.568 52.7305C71.4333 52.7768 68.2987 52.8237 65.1651 52.8558C62.7 52.881 60.0796 52.8644 57.9952 51.5537C56.1959 50.4222 55.0808 48.4989 53.5947 46.982C51.193 44.5304 47.7166 43.1615 44.2804 43.3142C40.8444 43.4668 37.5043 45.1385 35.3312 47.7933C34.1421 49.2457 33.2169 51.0345 31.5447 51.894C30.3191 52.524 28.8807 52.5469 27.5014 52.5548C23.134 52.5797 18.7671 52.5845 14.3999 52.5834" stroke="#E8728A" stroke-width="1.4496" stroke-linecap="round"/>
<path d="M45.2048 36.1051L45.338 30.6" stroke="#E8728A" stroke-width="1.4496" stroke-linecap="round"/>
<path d="M54.5193 40.0894L58.8634 36.6838" stroke="#E8728A" stroke-width="1.4496" stroke-linecap="round"/>
<path d="M34.9442 40.0894L30.6001 36.6838" stroke="#E8728A" stroke-width="1.4496" stroke-linecap="round"/>
<path d="M53.8693 32.7441L50.636 37.2101" stroke="#E8728A" stroke-width="1.4496" stroke-linecap="round"/>
<path d="M36.7039 32.7441L39.9372 37.2101" stroke="#E8728A" stroke-width="1.4496" stroke-linecap="round"/>
</svg>
