<svg width="82" height="82" viewBox="0 0 82 82" fill="none" xmlns="http://www.w3.org/2000/svg">
<path d="M41.0266 30.7305C40.3046 35.9672 35.8155 40.0002 30.3852 40.0002C24.955 40.0002 20.4657 35.9672 19.7439 30.7305" stroke="#E8728A" stroke-width="1.72222" stroke-linecap="round"/>
<path fill-rule="evenodd" clip-rule="evenodd" d="M48.0839 28.2585C48.0839 38.0425 40.16 45.9742 30.3851 45.9742C20.6106 45.9742 12.6865 38.0425 12.6865 28.2585C12.6865 18.4743 20.6106 10.5426 30.3851 10.5426C40.16 10.5426 48.0839 18.4743 48.0839 28.2585Z" stroke="#E8728A" stroke-width="1.72222"/>
<path d="M47.2238 33.7291C48.3789 33.4917 49.575 33.3672 50.8003 33.3672C60.575 33.3672 68.4991 41.2989 68.4991 51.0831C68.4991 60.8672 60.575 68.7988 50.8003 68.7988C41.0256 68.7988 33.1016 60.8672 33.1016 51.0831C33.1016 49.3069 33.3627 47.5918 33.8487 45.9742" stroke="#E8728A" stroke-width="1.72222"/>
<path d="M59.9856 60.1465C58.219 56.6307 54.5822 54.2186 50.3826 54.2186C46.1829 54.2186 42.5461 56.6307 40.7795 60.1465" stroke="#E8728A" stroke-width="1.72222" stroke-linecap="round"/>
</svg>
